<?xml version="1.0" encoding="UTF-8" standalone="no"?>
<!-- Created with Inkscape (http://www.inkscape.org/) -->

<svg
   width="32"
   height="32"
   viewBox="0 0 8.4666665 8.4666666"
   version="1.1"
   id="svg1"
   xml:space="preserve"
   sodipodi:docname="engineer.svg"
   inkscape:version="1.3.2 (091e20e, 2023-11-25, custom)"
   xmlns:inkscape="http://www.inkscape.org/namespaces/inkscape"
   xmlns:sodipodi="http://sodipodi.sourceforge.net/DTD/sodipodi-0.dtd"
   xmlns="http://www.w3.org/2000/svg"
   xmlns:svg="http://www.w3.org/2000/svg"><sodipodi:namedview
     id="namedview1"
     pagecolor="#ffffff"
     bordercolor="#000000"
     borderopacity="0.25"
     inkscape:showpageshadow="2"
     inkscape:pageopacity="0.0"
     inkscape:pagecheckerboard="0"
     inkscape:deskcolor="#d1d1d1"
     showgrid="false"
     inkscape:zoom="12.984375"
     inkscape:cx="23.528279"
     inkscape:cy="28.072202"
     inkscape:window-width="1920"
     inkscape:window-height="1009"
     inkscape:window-x="1912"
     inkscape:window-y="-8"
     inkscape:window-maximized="1"
     inkscape:current-layer="svg1"><inkscape:grid
       id="grid1"
       units="px"
       originx="0"
       originy="0"
       spacingx="0.26458333"
       spacingy="0.26458333"
       empcolor="#0099e5"
       empopacity="0.30196078"
       color="#0099e5"
       opacity="0.14901961"
       empspacing="5"
       dotted="false"
       gridanglex="30"
       gridanglez="30"
       visible="false" /></sodipodi:namedview><defs
     id="defs1" /><g
     id="g57"
     transform="matrix(0.20657123,0,0,0.20657123,-11.388167,-10.770934)"><path
       id="rect27-8"
       style="fill:#0f172a;stroke-width:1.41669"
       d="m 60.109231,56.059346 h 30.801023 c 0.874,0 1.57762,0.823849 1.57762,1.847191 v 21.167326 c 0,1.023332 -0.70362,1.847181 -1.57762,1.847181 H 60.109231 c -0.873998,0 -1.577614,-0.823849 -1.577614,-1.847181 V 57.906537 c 0,-1.023342 0.703616,-1.847191 1.577614,-1.847191 z" /><path
       style="fill:none;fill-opacity:1;stroke:#f9db6d;stroke-width:1.04998;stroke-linecap:butt;stroke-dasharray:none;stroke-opacity:1"
       d="m 61.888398,63.385421 3.448698,2.952626 -3.4108,3.085342"
       id="path25-4" /><path
       style="fill:none;fill-opacity:1;stroke:#f9db6d;stroke-width:1.12366;stroke-linecap:butt;stroke-dasharray:none;stroke-opacity:1"
       d="m 65.214422,69.961123 h 4.2919"
       id="path26-3" /><path
       id="rect26-2"
       style="fill:#64748b;fill-opacity:1;stroke-width:1.44167"
       d="m 60.859115,57.191256 h 29.269689 c 0.47086,0 0.84993,0.31842 0.84993,0.71394 v 0.89241 l -0.005,0.71399 -0.84508,-5e-5 H 60.859115 l -0.850425,-0.008 4.88e-4,-0.70638 v -0.89241 c 0,-0.39552 0.379072,-0.71394 0.849937,-0.71394 z"
       sodipodi:nodetypes="sssccccccss" /><path
       style="fill:#f9db6d;fill-opacity:1;stroke:#0f172a;stroke-width:1.05833;stroke-linecap:butt;stroke-dasharray:none;stroke-opacity:1"
       d="m 67.981803,82.17361 24.19798,-0.12636 -0.0632,6.63391 h -24.1348 z"
       id="path49"
       sodipodi:nodetypes="ccccc" /><path
       style="fill:#f9db6d;fill-opacity:1;stroke:#0f172a;stroke-width:1.05833;stroke-linecap:butt;stroke-dasharray:none;stroke-opacity:1"
       d="m 88.136253,81.79453 -6.25483,-5.93894 -2.5272,-1.83222 -1.57951,-1.51632 -0.44228,-2.14812 -3.41172,-2.14812 -1.70586,1.64268 1.70586,3.7908 2.2113,0.44226 1.89541,1.95859 4.48579,5.81257 z"
       id="path51"
       sodipodi:nodetypes="cccccccccccc" /><path
       style="fill:#f9db6d;fill-opacity:1;stroke:#0f172a;stroke-width:1.05833;stroke-linecap:butt;stroke-dasharray:none;stroke-opacity:1"
       d="m 86.177673,67.38946 -1.45314,-0.0632 c -1.7862,0.39535 -2.35721,1.00132 -3.34855,2.40085 -0.54329,1.30709 -0.21897,2.42625 0.25272,3.66444 l -8.71885,8.52932 5.81257,0.18954 5.37031,-6.25483 c 1.3967,0.41785 2.56857,0.3793 3.91716,0 0.79429,-0.71197 1.41179,-1.09482 1.89541,-2.02177 l 0.44226,-1.95858 -0.6318,-2.02176 -3.09583,3.34854 -1.43876,-0.83715 -0.8989,-1.50051 3.28536,-2.90628 z"
       id="path50"
       sodipodi:nodetypes="cccccccccccccccc" /><path
       style="fill:#ffffff;fill-opacity:1;stroke:#0f172a;stroke-width:1.05833;stroke-linecap:butt;stroke-dasharray:none;stroke-opacity:1"
       d="M 71.014453,88.36526 V 85.58533"
       id="path52" /><path
       style="fill:#ffffff;fill-opacity:1;stroke:#0f172a;stroke-width:1.05833;stroke-linecap:butt;stroke-dasharray:none;stroke-opacity:1"
       d="m 74.678893,88.42844 v -2.5272"
       id="path53" /><path
       style="fill:#ffffff;fill-opacity:1;stroke:#0f172a;stroke-width:1.05833;stroke-linecap:butt;stroke-dasharray:none;stroke-opacity:1"
       d="M 78.153803,88.30208 V 85.77487"
       id="path54" /><path
       style="fill:#ffffff;fill-opacity:1;stroke:#0f172a;stroke-width:1.05833;stroke-linecap:butt;stroke-dasharray:none;stroke-opacity:1"
       d="m 81.691883,88.30208 0.0632,-2.65357"
       id="path55" /><path
       style="fill:#ffffff;fill-opacity:1;stroke:#0f172a;stroke-width:1.05833;stroke-linecap:butt;stroke-dasharray:none;stroke-opacity:1"
       d="M 85.229973,88.17572 V 85.83805"
       id="path56" /><path
       style="fill:#ffffff;fill-opacity:1;stroke:#0f172a;stroke-width:1.05833;stroke-linecap:butt;stroke-dasharray:none;stroke-opacity:1"
       d="m 88.831243,88.2389 0.0632,-2.71675"
       id="path57" /></g></svg>
